# xmcd
#
# Track frame offsets:
#	150
#	14115
#	33770
#	55972
#	70882
#	82808
#	98974
#	109954
#	123792
#	136180
#	152523
#	164085
#
# Disc length: 2379 seconds
#
# Revision: 1
# Processed by: cddbd v1.5.2PL0 Copyright (c) Steve Scherf et al.
# Submitted via: audiograbber 1.83.01
#
DISCID=9909490c
DTITLE=KARIRI - CASINHA BRANCA
DYEAR=1900
DGENRE=
TTITLE0=ÍNDIA
TTITLE1=O TROCO
TTITLE2=BEIJA-ME MUITO
TTITLE3=NEGUE
TTITLE4=CASINHA BRANCA
TTITLE5=BAIÃO DA SAUDADE
TTITLE6=DONA CAROLINA
TTITLE7=OLHA PRO CÉU
TTITLE8=BAIÃO PSICODÉLICO
TTITLE9=HISTÓRIA DE AMOR
TTITLE10=SANFONA DO POVO
TTITLE11=CARPINTEIRO
EXTD=
EXTT0=
EXTT1=
EXTT2=
EXTT3=
EXTT4=
EXTT5=
EXTT6=
EXTT7=
EXTT8=
EXTT9=
EXTT10=
EXTT11=
PLAYORDER=
